<svg width="65" height="51" viewBox="0 0 65 51" fill="none" xmlns="http://www.w3.org/2000/svg">
<path fill-rule="evenodd" clip-rule="evenodd" d="M7.42858 12.2973L6.74445 5.82548L8.82009 5.60793L9.0527 7.80534L10.986 7.60148L10.7548 5.40269L12.8291 5.18377L13.5132 11.6556L11.4389 11.8745L11.179 9.3761L9.24015 9.57997L9.49875 12.0811L7.42858 12.2973ZM14.6926 11.423L14.2411 4.92517L19.4295 4.56943L19.539 6.1265L16.4344 6.33447L16.4891 7.20742L19.1093 7.01586L19.2188 8.50452L16.5959 8.69334L16.6643 9.68943L19.8865 9.47187L19.996 11.0413L14.6858 11.423H14.6926ZM25.079 8.25003L27.0575 8.14057C27.0438 8.99983 26.7716 9.68259 26.253 10.1738C25.7344 10.665 25.0106 10.9523 24.0816 11.0071C23.0444 11.0618 22.2112 10.8018 21.5831 10.2148C20.9551 9.62786 20.6007 8.82332 20.546 7.75198C20.4913 6.68064 20.7513 5.83643 21.3109 5.19882C21.8705 4.56122 22.649 4.20274 23.6725 4.14801C24.6138 4.10696 25.365 4.29851 25.9383 4.7213C26.5116 5.14409 26.8263 5.77212 26.9358 6.61907L24.9422 6.72853C24.935 6.58811 24.8998 6.45055 24.8387 6.32391C24.7776 6.19727 24.6919 6.08411 24.5865 5.99104C24.3548 5.82054 24.068 5.74249 23.7819 5.77212C23.6045 5.77314 23.4301 5.81879 23.275 5.90487C23.1198 5.99095 22.9887 6.11469 22.8939 6.26469C22.7037 6.57802 22.6203 7.04186 22.649 7.64252C22.6778 8.24318 22.8118 8.66734 23.0444 8.96699C23.1622 9.1097 23.3137 9.22074 23.4853 9.29003C23.6569 9.35933 23.843 9.38468 24.0268 9.36378C24.3131 9.36295 24.5877 9.24997 24.7917 9.04909C24.98 8.82571 25.082 8.54219 25.079 8.25003V8.25003ZM28.0687 10.5761V4.05086H30.1703V6.26332H32.1091V4.05086H34.1984V10.5637H32.1064V8.03795H30.1676V10.5637L28.0687 10.5761ZM37.3728 7.40855C37.3454 8.0229 37.4275 8.47305 37.6314 8.7768C37.8353 9.08056 38.1363 9.22696 38.5741 9.24064C39.012 9.25432 39.339 9.13118 39.5565 8.84522C39.7741 8.55925 39.8849 8.12141 39.9123 7.49338C39.9396 6.86536 39.8438 6.42751 39.6523 6.12513C39.4607 5.82275 39.1337 5.67498 38.7109 5.66129C38.2594 5.64761 37.9324 5.78307 37.7272 6.05672C37.5219 6.33037 37.3865 6.79421 37.3728 7.40855V7.40855ZM35.2561 7.34014C35.2971 6.27564 35.6255 5.45606 36.2536 4.85539C36.8816 4.25473 37.7135 3.99476 38.7643 4.02213C39.8151 4.04949 40.621 4.40524 41.1957 5.03327C41.7703 5.66129 42.0549 6.50687 42.0166 7.57274C41.9783 8.63861 41.6486 9.45683 41.0205 10.0438C40.3925 10.6308 39.5729 10.9168 38.5221 10.8757C37.4713 10.8347 36.6654 10.5076 36.0784 9.87962C35.4914 9.25159 35.2315 8.39096 35.2575 7.34014H35.2561ZM45.8368 11.1494L46.2869 4.65152L51.4863 5.02095L51.3768 6.56297L48.2778 6.3591L48.223 7.21836L50.8446 7.39624L50.7351 8.88353L48.1136 8.70702L48.0452 9.71679L51.2674 9.93571L51.1579 11.5188L45.8477 11.137L45.8368 11.1494ZM52.1444 11.7774L52.4851 5.27818L54.465 5.38764L56.1384 8.4881C56.2082 8.60348 56.2633 8.72712 56.3026 8.85616C56.3573 9.02035 56.412 9.21191 56.4667 9.43083C56.4546 9.30351 56.45 9.17558 56.4531 9.04772C56.4531 8.91089 56.4531 8.74807 56.4667 8.55651L56.6173 5.48479L58.6094 5.59425L58.2687 12.0921L56.2752 11.9826L54.6059 8.88353C54.5649 8.78912 54.5101 8.66597 54.4417 8.50178C54.3733 8.33759 54.3323 8.14741 54.2775 7.94217C54.2939 8.05962 54.3031 8.17797 54.3049 8.29655C54.3049 8.41969 54.3049 8.59756 54.2912 8.83017L54.1284 11.8745L52.1485 11.7651L52.1444 11.7774ZM15.6121 46.6172L13.728 46.4544L14.3013 39.9689L16.8271 40.1878L17.4414 43.5044C17.4551 43.5455 17.4688 43.6549 17.4962 43.8191C17.5235 43.9833 17.5372 44.1872 17.5783 44.4745C17.6467 44.2556 17.7014 44.0791 17.7425 43.9149C17.7835 43.7507 17.8369 43.6412 17.8642 43.5591L19.0792 40.3916L21.605 40.6106L21.0317 47.0961L19.1477 46.9319L19.4487 43.737C19.4624 43.5455 19.4897 43.3553 19.5034 43.1774C19.5171 42.9995 19.5445 42.7957 19.5581 42.6041C19.4624 42.9311 19.3392 43.2882 19.2024 43.6823L19.1887 43.737L18.1105 46.8361L16.6629 46.713L16.1156 43.5318C16.0882 43.395 16.0746 43.2321 16.0472 43.0406C16.0198 42.849 15.9925 42.6041 15.9651 42.2894C15.9514 42.5631 15.9377 42.8093 15.9241 43.0132C15.9104 43.2171 15.8981 43.369 15.8844 43.4907L15.6107 46.6172H15.6121ZM22.3015 47.0687L22.6435 40.5695L27.8306 40.8432L27.7485 42.3989L24.6494 42.2347L24.5947 43.0953L27.2162 43.2321L27.1478 44.7372L24.5139 44.5881L24.4729 45.5978L27.6938 45.762L27.613 47.3451L22.3015 47.0715V47.0687ZM27.9264 47.2999L30.2196 43.9559L28.2397 40.8021L30.589 40.8432L31.4346 42.5083L32.4047 40.8664L34.7115 40.9075L32.5415 43.9929L34.6705 47.4135L32.3089 47.3725L31.3511 45.5842L30.3276 47.3314L27.925 47.2904L27.9264 47.2999ZM35.2575 47.3684L35.0262 40.8705L37.1552 40.7884L37.3878 47.2999L35.2575 47.3684ZM42.7391 44.625L44.7189 44.5156C44.7052 45.3748 44.4316 46.0576 43.913 46.5679C43.3945 47.0783 42.6707 47.3314 41.743 47.3889C40.6908 47.4436 39.8589 47.1836 39.2309 46.5967C38.6028 46.0097 38.2608 45.2052 38.206 44.1338C38.1513 43.0625 38.3976 42.2183 38.9572 41.582C39.5168 40.9458 40.3091 40.5982 41.3325 40.5435C42.2752 40.4888 43.0264 40.6803 43.586 41.1031C44.1456 41.5259 44.4863 42.169 44.5958 43.0009L42.6022 43.1104C42.5475 42.7833 42.4394 42.5371 42.2342 42.3729C42.008 42.201 41.7242 42.1231 41.442 42.1553C41.2613 42.1557 41.0837 42.2023 40.9261 42.2906C40.7686 42.379 40.6362 42.5062 40.5417 42.6602C40.3638 42.9599 40.2817 43.4251 40.3091 44.0285C40.3364 44.6319 40.4732 45.0656 40.7045 45.3516C40.8227 45.4949 40.974 45.6072 41.1455 45.6787C41.3169 45.7503 41.5032 45.7789 41.6883 45.762C41.8291 45.7608 41.9683 45.7311 42.0974 45.6747C42.2265 45.6182 42.3429 45.5362 42.4394 45.4337C42.6383 45.2135 42.7454 44.9257 42.7391 44.6291V44.625ZM47.2721 43.5865C47.3268 44.2009 47.4623 44.6387 47.6949 44.911C47.9275 45.1833 48.2545 45.2941 48.691 45.253C49.1274 45.212 49.4421 45.0478 49.62 44.7468C49.7979 44.4458 49.8526 43.9833 49.7979 43.369C49.7432 42.7546 49.6063 42.3031 49.3737 42.0308C49.1411 41.7585 48.8141 41.6477 48.3913 41.6887C47.9685 41.7298 47.6401 41.894 47.4623 42.2087C47.2844 42.5234 47.2174 42.9722 47.2721 43.5865V43.5865ZM45.1691 43.7644C45.0733 42.7136 45.3059 41.8488 45.8532 41.1839C46.4005 40.5189 47.205 40.1467 48.2422 40.0646C49.2793 39.9825 50.1263 40.2015 50.7817 40.7611C51.437 41.3207 51.8051 42.1293 51.9009 43.1774C51.9967 44.2255 51.7641 45.093 51.2168 45.7579C50.6695 46.4229 49.88 46.7951 48.8415 46.8908C47.803 46.9866 46.9437 46.7403 46.2883 46.1807C45.6329 45.6211 45.2649 44.8125 45.1691 43.7644V43.7644ZM3.20478 2.97268L5.07519 2.71271L5.96318 2.59093L6.86349 2.48147L7.75149 2.37201L8.6518 2.24887L9.53979 2.13941L10.4264 2.045L11.3281 1.93554L12.2147 1.83976L13.1164 1.74399L14.0044 1.64821L14.9047 1.56611L15.7927 1.4717L16.693 1.38961L17.581 1.30751L18.4813 1.2391L19.3693 1.17069L20.2696 1.10228L21.1576 1.03386L22.0593 0.979134L22.9596 0.924403L23.8476 0.869673L24.7479 0.829994L25.6359 0.775264L26.5362 0.747899L27.4379 0.706852L28.3245 0.679486L29.2262 0.665804L30.1265 0.638439L31.0145 0.624756H34.6048L35.5065 0.638439L36.3931 0.665804L37.2948 0.679486L38.1951 0.706852L39.0831 0.747899L39.9848 0.775264L40.8851 0.829994L41.7731 0.869673L42.6734 0.924403L43.5614 0.979134L44.4617 1.03386L45.3634 1.10228L46.25 1.17069L47.1517 1.2391L48.0383 1.30751L48.94 1.38961L49.828 1.4717L50.7283 1.56611L51.6163 1.64821L52.5166 1.74399L53.4046 1.83976L54.3049 1.93554L55.1929 2.045L56.0932 2.13941L56.9812 2.24887L57.8829 2.37201L58.7695 2.48147L59.6712 2.59093L60.5578 2.71271L62.4323 2.97268L62.7333 4.61458L62.8414 5.28366L62.9646 5.95273L63.074 6.62181L63.1835 7.29088L63.293 7.97501L63.4024 8.64408L63.5105 9.31316L63.6063 9.98223L63.7021 10.6664L63.7978 11.3354L63.8799 12.0031L63.9757 12.6873L64.0578 13.3563L64.1249 14.0254L64.2069 14.7095L64.2754 15.3786L64.3438 16.0477L64.4122 16.7318L64.4669 17.4009L64.5216 18.085L64.5764 18.7541L64.6174 19.4218L64.6585 20.1059L64.6995 20.775L64.7255 21.4591L64.7529 22.1282L64.7802 22.8123L64.7939 23.4814L64.8076 24.1655L64.8213 24.8346V26.2029L64.8076 26.8719L64.7939 27.5561L64.7802 28.2251L64.7529 28.9093L64.7255 29.5783L64.6995 30.2625L64.6585 30.9315L64.6174 31.6157L64.5764 32.2847L64.5216 32.9538L64.4669 33.6379L64.3985 34.307L64.3438 34.9912L64.2754 35.6602L64.2069 36.3293L64.1249 37.0134L64.0441 37.6825L63.962 38.3516L63.8799 39.0207L63.7842 39.7048L63.7021 40.3739L63.6063 41.0416L63.4968 41.7106L63.4024 42.3948L63.293 43.0638L63.1835 43.7329L63.074 44.402L62.9646 45.0711L62.8414 45.7401L62.7333 46.4092L62.4323 48.0511L60.5619 48.3111L59.6753 48.4342L58.7736 48.5423L57.887 48.6655L56.9853 48.7749L56.0973 48.8844L55.197 48.9802L54.309 49.0883L53.4087 49.184L52.5207 49.2798L51.6204 49.3756L50.7324 49.4714L49.8321 49.5535L48.9441 49.6356L48.0424 49.7163L47.1558 49.7847L46.2541 49.8531L45.3675 49.9215L44.4658 49.9899L43.5655 50.0447L42.6775 50.0994L41.7717 50.1185L40.87 50.1596L39.9834 50.2006L39.0817 50.2417L38.1937 50.2677L37.2934 50.2951L36.3917 50.3224L35.5051 50.3361L34.6034 50.3498L33.7031 50.3635H31.9203L31.0186 50.3498L30.1169 50.3361L29.2303 50.3224L28.3286 50.2951L27.442 50.2677L26.5403 50.2417L25.64 50.2006L24.752 50.1596L23.8517 50.1049L22.9637 50.0638L22.0634 50.0091L21.1617 49.9407L20.2737 49.8859L19.3734 49.8175L18.4854 49.7491L17.5851 49.667L16.6971 49.5863L15.7968 49.5042L14.9088 49.4221L14.0085 49.34L13.1205 49.2442L12.2188 49.1485L11.3322 49.0527L10.4387 48.9405L9.53842 48.831L8.65043 48.7216L7.75012 48.6121L6.86212 48.5026L5.9755 48.3946L5.07382 48.2714L3.20342 48.0114L2.91745 46.3695L2.79431 45.7005L2.67117 45.0314L2.56171 44.3623L2.45225 43.6932L2.34279 43.0242L2.23469 42.3551L2.13892 41.671L2.02946 41.0019L1.93368 40.3342L1.85158 39.6651L1.75581 38.981L1.68192 38.3187L1.59982 37.6497L1.51773 36.9806L1.43563 36.2965L1.36722 35.6274L1.29881 34.9583L1.24408 34.2742L1.17567 33.6051L1.12094 32.921L1.06757 32.2519L1.02653 31.5828L0.985479 30.8987L0.944432 30.2296L0.917067 29.5455L0.889702 28.8764L0.862337 28.1923L0.848654 27.5232L0.834972 26.8391L0.821289 26.17V24.8018L0.834972 24.1327L0.848654 23.4486L0.862337 22.7795L0.889702 22.0954L0.917067 21.4263L0.958114 20.7422L0.985479 20.0731L1.02653 19.389L1.08126 18.7213L1.13462 18.0522L1.18935 17.3681L1.24408 16.699L1.31249 16.0149L1.3809 15.3458L1.44932 14.6767L1.51773 13.9926L1.59982 13.3235L1.68192 12.6544L1.76265 11.9703L1.85842 11.3026L1.9542 10.6335L2.04998 9.9494L2.14576 9.28032L2.24154 8.61125L2.34963 7.94217L2.45909 7.27309L2.56855 6.58897L2.69169 5.91989L2.80115 5.25082L2.91335 4.61048L3.19931 2.96857L3.20478 2.97268ZM4.36506 4.174C13.8402 2.8769 23.3277 1.97659 32.8028 1.97659C42.278 1.97659 51.7791 2.8769 61.2625 4.174C62.5596 11.2889 63.4599 18.4038 63.4599 25.4996C63.4599 32.5953 62.5691 39.7116 61.2679 46.8101C51.7791 48.1072 42.2916 49.0075 32.8083 48.9993C23.3249 48.9911 13.8457 48.1113 4.37054 46.8101C3.07343 39.7116 2.17312 32.5981 2.18133 25.4996C2.18954 18.4011 3.08164 11.2875 4.37054 4.174H4.36506ZM30.864 19.5874C26.933 19.2604 20.9661 19.4916 19.0136 19.0962C17.0611 18.7007 19.7784 15.4101 21.3492 15.4019C26.1381 15.3882 33.3898 15.7699 35.7788 15.3198C36.0798 15.2651 37.0211 12.6024 37.4043 13.8995C38.8642 18.8964 34.9058 19.9199 30.864 19.5928V19.5874ZM25.8124 23.2734C24.1062 22.6454 22.6873 21.3894 23.6561 20.2564C24.6248 19.1235 25.8535 22.0447 27.2874 20.8434C29.909 18.6323 29.9911 21.5125 28.8445 22.4415C27.6979 23.3706 26.3994 23.4924 25.8124 23.2734ZM53.3909 25.0207C48.2983 24.1751 44.3933 23.5471 37.9297 21.9216C37.8065 21.8942 37.9981 17.6486 38.2156 17.6349C43.4588 17.3079 48.7512 17.2394 53.9163 17.3489C56.3327 17.4036 55.8319 25.4312 53.3978 25.0207H53.3909ZM30.4686 27.9296C29.7995 27.5054 28.475 26.5094 27.6418 25.0344C29.6079 23.8604 30.7545 22.8452 31.1377 20.3659C32.7481 20.3112 34.0999 20.2838 35.3423 20.3659C36.9938 23.0422 32.9396 27.7545 30.4686 27.9296ZM27.3558 29.0242C22.14 27.946 12.8168 26.5531 11.7646 26.4847C10.7124 26.4163 11.0955 27.4261 9.57537 27.2769C9.52064 24.9017 9.02807 22.4032 11.6277 21.8286C14.5655 21.1585 17.5595 20.7655 20.5706 20.6546C23.1512 22.525 25.8398 25.6925 28.3793 28.18C29.021 28.808 28.3245 29.2185 27.3558 29.0269V29.0242ZM32.4183 33.5695C28.4048 32.3427 24.3913 31.114 20.3777 29.8835C20.3777 28.86 23.0677 29.8027 24.0638 29.7754C27.0397 29.7343 32.7741 30.2255 33.1846 33.5695C33.2106 33.7611 32.6099 33.5695 32.4197 33.5695H32.4183ZM50.5477 33.7611C48.8825 33.5299 36.991 27.3043 36.2412 26.8117C35.4914 26.3192 36.8556 23.699 37.2921 23.7126C40.2817 23.7674 48.3092 26.1837 52.2279 26.8665C52.6233 26.9349 53.4292 27.1401 53.6194 27.5219C54.5348 29.4059 52.2142 34.0074 50.5477 33.7611ZM41.3462 38.1983C39.7221 38.0889 32.4457 30.2625 32.6085 30.0066C33.2092 29.0653 34.4516 27.4398 35.5858 28.0678C39.7358 30.3213 45.6466 33.2015 49.8923 35.9051C50.4806 36.2732 49.4285 37.8207 48.7594 38.0478C47.3542 38.5253 42.9443 38.2941 41.3462 38.1983Z" fill="#858585"/>
</svg>
