<?xml version="1.0"?>
<svg xmlns="http://www.w3.org/2000/svg" xmlns:xlink="http://www.w3.org/1999/xlink" xmlns:svgjs="http://svgjs.com/svgjs" version="1.1" width="512" height="512" x="0" y="0" viewBox="0 0 64 64" style="enable-background:new 0 0 512 512" xml:space="preserve" class=""><g><g xmlns="http://www.w3.org/2000/svg"><path d="m34 33h-2c-.552 0-1-.449-1-1h-2c0 1.654 1.346 3 3 3v2h2v-2c1.654 0 3-1.346 3-3s-1.346-3-3-3h-2c-.552 0-1-.449-1-1s.448-1 1-1h2c.552 0 1 .449 1 1h2c0-1.654-1.346-3-3-3v-2h-2v2c-1.654 0-3 1.346-3 3s1.346 3 3 3h2c.552 0 1 .449 1 1s-.448 1-1 1z" fill="#0051fe" data-original="#000000" style="" class=""/><path d="m60.445 21h-.445v-16h-2v18h2.445c.306 0 .555.249.555.554 0 .104-.029.206-.084.294l-4.233 6.773c-.297.474-1.068.473-1.365 0l-4.232-6.774c-.057-.087-.086-.189-.086-.293 0-.305.249-.554.555-.554h2.445v-16h-2v14h-.445c-1.409 0-2.555 1.146-2.555 2.554 0 .479.134.947.389 1.354l4.233 6.774c.516.825 1.405 1.318 2.378 1.318s1.862-.493 2.378-1.318l4.234-6.774c.254-.407.388-.875.388-1.354 0-1.408-1.146-2.554-2.555-2.554z" fill="#0051fe" data-original="#000000" style="" class=""/><path d="m42.783 37.925c1.391-1.959 2.217-4.345 2.217-6.925v-.226c0-2.655-.897-5.272-2.528-7.367l-4.213-5.418 4.943-6.589c.514-.689.798-1.541.798-2.4 0-2.206-1.794-4-4-4-1.33 0-2.036.807-2.504 1.341-.436.498-.61.659-.999.659-.39 0-.563-.161-1-.659-.468-.534-1.174-1.341-2.503-1.341-1.328 0-2.034.808-2.502 1.342-.434.497-.608.658-.996.658s-.561-.161-.995-.658c-.467-.534-1.173-1.342-2.501-1.342-2.206 0-4 1.794-4 4 0 .859.284 1.711.8 2.4l4.942 6.589-4.213 5.418c-1.632 2.095-2.529 4.712-2.529 7.367v.226c0 1.404.255 2.747.7 4h-1.853l-1-6h-.847c-3.388 0-6.251 2.425-6.809 5.768l-.048.287c-2.97.384-5.409 2.729-5.841 5.754-.119.841-.729 1.518-1.554 1.724l-.478.119c-1.335.333-2.27 1.531-2.27 2.91v5.724c0 2.063 1.549 3.775 3.602 3.98l3.697.369c1.54.154 2.701 1.437 2.701 2.985v2.38c0 1.103.897 2 2 2h4c1.103 0 2-.897 2-2v-2c0-.552.448-1 1-1h14c.552 0 1 .448 1 1v2.003c0 1.103.897 2 2 2h4c.536 0 1.039-.209 1.417-.588.376-.378.583-.881.581-1.414v-2.142c.001-1.041.274-2.068.79-2.971l1.622-2.839c1.04-1.82 1.59-3.891 1.59-5.985 0-3.52-1.568-6.859-4.217-9.139zm-18.783-28.925c0-1.103.897-2 2-2 .388 0 .561.161.995.658.467.534 1.173 1.342 2.501 1.342s2.034-.808 2.502-1.342c.435-.497.608-.658.996-.658.389 0 .563.161.999.659.468.534 1.174 1.341 2.504 1.341 1.329 0 2.035-.807 2.503-1.341.437-.498.61-.659 1-.659 1.103 0 2 .897 2 2 0 .43-.142.856-.399 1.2l-5.101 6.8h-1.174l1.636-5.725-1.924-.55-1.793 6.275h-.49l-1.793-6.275-1.924.55 1.636 5.725h-1.174l-5.1-6.8c-.258-.344-.4-.77-.4-1.2zm-1 21.774c0-2.213.748-4.393 2.106-6.14l4.383-5.634h7.021l4.383 5.635c1.359 1.746 2.107 3.927 2.107 6.139v.226c0 5.514-4.486 10-10 10s-10-4.486-10-10zm20.674 21.284-1.622 2.839c-.688 1.204-1.053 2.573-1.054 3.961l.002 2.145h-4v-2.003c0-1.654-1.346-3-3-3h-14c-1.654 0-3 1.346-3 3v2h-4v-2.38c0-2.579-1.936-4.718-4.502-4.976l-3.697-.369c-1.027-.102-1.801-.958-1.801-1.99v-5.724c0-.46.312-.858.757-.971l.477-.119c1.617-.404 2.814-1.73 3.05-3.38.331-2.332 2.36-4.091 4.716-4.091h.848l.316-1.904c.35-2.093 1.972-3.68 4.001-4.025l.988 5.929h4.47c2.079 3.581 5.946 6 10.377 6 3.32 0 6.329-1.356 8.504-3.543 2.197 1.903 3.496 4.68 3.496 7.607 0 1.749-.459 3.475-1.326 4.994z" fill="#0051fe" data-original="#000000" style="" class=""/><circle cx="12" cy="41" r="1" fill="#0051fe" data-original="#000000" style="" class=""/><path d="m58 1h2v2h-2z" fill="#0051fe" data-original="#000000" style="" class=""/><path d="m56 35c-1.654 0-3 1.346-3 3s1.346 3 3 3 3-1.346 3-3-1.346-3-3-3zm0 4c-.552 0-1-.448-1-1s.448-1 1-1 1 .448 1 1-.448 1-1 1z" fill="#0051fe" data-original="#000000" style="" class=""/><path d="m56 43c-1.654 0-3 1.346-3 3s1.346 3 3 3 3-1.346 3-3-1.346-3-3-3zm0 4c-.552 0-1-.448-1-1s.448-1 1-1 1 .448 1 1-.448 1-1 1z" fill="#0051fe" data-original="#000000" style="" class=""/><path d="m56 51c-1.654 0-3 1.346-3 3s1.346 3 3 3 3-1.346 3-3-1.346-3-3-3zm0 4c-.552 0-1-.448-1-1s.448-1 1-1 1 .448 1 1-.448 1-1 1z" fill="#0051fe" data-original="#000000" style="" class=""/></g></g></svg>
