<svg id="Capa_1" data-name="Capa 1" xmlns="http://www.w3.org/2000/svg" xmlns:xlink="http://www.w3.org/1999/xlink" viewBox="0 0 1329.74 711.45"><defs><style>.cls-1{fill:url(#Degradado_sin_nombre_2);}.cls-2{fill:url(#Degradado_sin_nombre_2-2);}.cls-3{fill:url(#Degradado_sin_nombre_2-3);}.cls-4{fill:url(#Degradado_sin_nombre_2-4);}.cls-5{fill:url(#Degradado_sin_nombre_2-5);}</style><linearGradient id="Degradado_sin_nombre_2" x1="-226.63" y1="9.33" x2="1383.47" y2="922.76" gradientUnits="userSpaceOnUse"><stop offset="0" stop-color="#3bf4b2"/><stop offset="0.09" stop-color="#39ecb5"/><stop offset="0.2" stop-color="#33d8bd"/><stop offset="0.34" stop-color="#29b6cb"/><stop offset="0.49" stop-color="#23a3d5"/><stop offset="0.65" stop-color="#1d8ddf"/><stop offset="0.81" stop-color="#1371ea"/><stop offset="1" stop-color="#0a58f6"/><stop offset="1" stop-color="#0b5af5"/></linearGradient><linearGradient id="Degradado_sin_nombre_2-2" x1="-193.35" y1="-49.31" x2="1416.75" y2="864.11" xlink:href="#Degradado_sin_nombre_2"/><linearGradient id="Degradado_sin_nombre_2-3" x1="-133.82" y1="-154.26" x2="1476.28" y2="759.16" xlink:href="#Degradado_sin_nombre_2"/><linearGradient id="Degradado_sin_nombre_2-4" x1="-83.49" y1="-242.97" x2="1526.61" y2="670.45" xlink:href="#Degradado_sin_nombre_2"/><linearGradient id="Degradado_sin_nombre_2-5" x1="-270.16" y1="86.07" x2="1339.94" y2="999.5" xlink:href="#Degradado_sin_nombre_2"/></defs><title>logo-goes</title><path class="cls-1" d="M364.54,597.71c-8,.28-16,1.2-24,1.13-5.83,0-11.64-.52-17.44-1.12-4.62-.48-9.27-.65-13.87-1.32s-10.54-1.94-12.57-6.7c-2.65-6.22,1.57-14.53,4.12-20.07,11.25-24.5,23.72-48.35,41.51-69,11.51-13.35,10.38-26.3-3.32-36.8-14.66-11.21-23.66.32-31.91,10.3-21.2,25.69-36.4,55.05-50.24,85.08-4.62,10-10.11,17.73-20.84,9.82-9.57-7.07-28-10.28-20.21-29,9.81-23.53,18.86-47.77,32-69.44,36-59.54,76.58-115.44,130.27-161.3C430.43,264.57,488.46,229.88,551,202c13.19-5.89,25.17,2.95,33.38,23.14,5.52,13.55-6.83,14.57-13.45,17.59-21.86,10-39.68,25.34-57.52,40.74-11.68,10.09-13,22.29-2.49,33.66,10,10.87,21.15,9.07,32.21-.09A383,383,0,0,1,577,291.39c25.26-16.6,30.46-13.74,31.81,15.89q.74,16.17,2.17,32.3c1.23,13.65,7.72,23.87,22.26,24.24,14.32.37,22-8.66,23.55-22.72.51-4.7.87-9.43,1-14.15.63-30.14-6.5-58.9-16.47-87-2.33-6.57-4.47-12.2-2.14-19.34,9-27.51,17.21-55.26,26.16-82.78,17.56-54-5.29-103.95-62.86-121.19-45.92-13.74-93.31-2.2-117.15,58.21-3.16,8-7.27,14.36-13.92,19.19-44.81,32.48-94.21,54.94-148.82,64.19-74.08,12.54-131.2,67-146.16,140.82C165.74,351.63,148,401.52,118.48,446.75c-7.89,12.07-17,21-31.42,26.8-49.63,19.86-71.42,70.78-53.78,121.18,18,51.55,66.91,75.47,120.55,58.79,26.35-8.19,52.69-16.44,78.78-25.4,7.5-2.58,13.52-2.67,21.19,0C290.4,641,328.22,647,367.05,644.41c14.57-1,26.66-7.06,27.76-23.75C395.66,607.74,381,597.12,364.54,597.71Zm165-515.1c8.89-16.55,32.37-28.84,48.74-25,32.75,7.66,47.82,22.82,47.76,51.2-2,17.8-10.76,36.86-16.85,56.66-2.45,8-8.1,5.9-12.42,1.56q-33.48-33.68-66.57-67.74C525.25,94.18,526.32,88.61,529.55,82.61ZM174.81,599.16c-13.74,3.36-26.91,9.22-40.72,12.07-35,7.22-61-15.39-60.43-52.89-.82-9.31,2.72-18.83,8.45-27.36,12-17.92,27.68-19.34,42.88-4.21,18.22,18.14,36,36.69,54.57,54.48C189.8,591.08,188.6,595.8,174.81,599.16Zm-6.3-90.11c-14.15-7.1-21.17-25.37-14.17-35.58,24.12-35.19,39.75-74.43,53.6-114.26,7.9-22.71,11-47,18-70.13,14.34-47.34,49-72.82,95.5-83,59.09-13,115.71-31.45,165.24-67.54,5.18-3.77,10.31-6.37,16.68-2.41,4.84,3,21.16,21.41,20.9,24.84-2.69,6.39-9.55,8.16-15.46,11C445.68,202,387.68,239.59,336.17,287.25c-63.88,59.1-112.52,128.85-149.23,207.39C183.43,502.17,182.93,516.28,168.51,509.05Z" transform="translate(-27.22 -11.46)"/><path class="cls-2" d="M876.64,408.83c-28-8.85-56.74-8.74-85.07,1.67-54.29,20-90.69,77.05-91.29,144.31-.36,39.66,18.64,70.55,51.3,81.12,29.69,9.61,59.39,8.63,89-2,74.85-26.87,99.36-123.61,83.1-178.34C916.7,432.06,899.33,416,876.64,408.83Zm-11.75,92.11c-3.74,25.73-6.32,55.26-29.76,77.64-15.67,15-34,17-52.35,10.09-18.93-7.15-21.13-25.65-18.92-42.75,3.26-25.2,7.15-50.62,23.64-71.77,12.67-16.25,33.87-25.12,51.2-20.68C858.06,458.43,865.84,471.41,864.89,500.94Z" transform="translate(-27.22 -11.46)"/><path class="cls-3" d="M1147,425.53c-16.16-14.58-37.61-22.21-59.39-22.78-14.8-.39-28.8,4.19-42.65,8.86s-26.07,10.89-37.11,20.4a167.05,167.05,0,0,0-25,26c-13.59,18.09-22.45,39.23-26.93,61.35-3.8,18.76-4.59,38-3.54,57.12,1.61,29.61,20.26,51.14,49.56,60.39,33.32,10.51,66.48,5.65,99.57-2.66,17-4.26,26.78-14.19,30.48-31.09,1.29-5.89,4.74-11.71-.12-17.17-5.42-6.09-12.56-4.67-18.83-2.15-16.57,6.67-34,8.31-51.48,9.9-39.16,3.58-55-15.64-45-54.21.56-2.08,25.7.52,28.25.64,19,.88,37.15-3.36,55.35-8.46a132.13,132.13,0,0,0,26.14-10.07c22.46-11.84,45.77-37.23,41.15-64.84-1.6-9.58-8.37-18.55-14.8-25.62C1150.84,429.18,1149,427.31,1147,425.53Zm-50.49,60.89a41.8,41.8,0,0,1-4.66,3.14c-9.2,5.34-19.7,7.78-30.2,8.85-5.35.55-10.74.74-16.12.81-4.17,0-9.94,1.07-13.91-.37s-6-6.32-5.44-10.56,3.15-7.94,5.91-11.22c13.38-15.91,25.89-30.61,48.67-29.89,11.18.35,21.15,5.59,25,16.55C1108.89,472.9,1103.53,480.94,1096.5,486.42Z" transform="translate(-27.22 -11.46)"/><path class="cls-4" d="M1346.56,415.31c-41.47-21.86-101.83-15.26-130.57,23.4-21.07,28.34-20.75,73.95,13,92.49,11.77,6.46,24.56,9.25,35.51,17.56,5.12,3.88,9.58,8.87,11.82,14.89,6.51,17.4-10.36,30.35-25.82,33.14-15.2,2.75-29.25-1.73-43-8.21-25-11.84-30.87-8-33.22,19.81-1,12.18,5,19.12,15.08,23.54,37.52,16.48,85.73,14.06,119.36-11,46-34.23,41.43-92.47-9.44-118-7.83-3.94-16-7.39-23.39-12-8.09-5-16.21-11.07-13.75-22.43,2.58-11.9,11.14-18.31,22.71-20.14,14.42-2.28,28.34.52,41.26,7,9.78,4.92,19.5,9.63,24.55-4.72C1355,438.6,1364.2,424.61,1346.56,415.31Z" transform="translate(-27.22 -11.46)"/><path class="cls-5" d="M673.11,409.1c-16-4.24-33.25-7.27-43.69,9.28-6.6,10.45-10.28,6.82-16.74,1.55-39-31.81-88.33-16.09-115.9,13.38-36.33,38.85-48.67,86.27-46.53,137.84,1,24.42,10.86,48.22,32,61.74,22.09,14.1,52.7,13.66,73.09-3.42,5.39-2.68,10.72-5.47,16.18-8,4.5-2.08,7.62-1.16,8.48,4.37,2.67,17.19-11.43,37.91-28.65,43.81-25.65,8.78-50.31,4.29-74.75-4.23-6.7-2.33-12.89-4.6-18.6,1.35-8.65,9-9.57,21.1-9.14,32.1.42,10.72,11.19,14.5,20.27,17,31.7,8.76,63.59,9.5,95.64,1.3,14.77-3.78,29.23-10.37,40.82-20.39A65.28,65.28,0,0,0,620.31,679c14.33-26.13,23.93-54.76,29.5-84,7.43-39,13.71-78.19,21.21-117.17,3.64-19,6.37-38.1,11.27-56.79C683.78,415.37,678.25,410.47,673.11,409.1Zm-66.29,77.25c.16,7-1.51,14.52-3,21.83-3,14.59-7.11,29.24-14.9,42.06a108.46,108.46,0,0,1-17.43,21.69c-6.14,6-12.67,11.72-20.94,14.41-6.68,2.18-14.06,3.56-21,2.1a23.11,23.11,0,0,1-9.6-4.39c-7.15-5.62-7.89-15.76-7.72-24.13.22-11.37,1.94-22.48,4.09-33.64,3-15.79,8.07-31.22,16.31-45.09,9-15.17,21.2-25.51,38.69-24.44a48.93,48.93,0,0,1,24,7.93C603.89,470.45,606.64,478.06,606.82,486.35Zm67.11-63.41a22.14,22.14,0,0,0-.89-2.68,23.37,23.37,0,0,1,.89,2.68Z" transform="translate(-27.22 -11.46)"/></svg>