<svg width="93" height="66" viewBox="0 0 93 66" fill="none" xmlns="http://www.w3.org/2000/svg">
<mask id="path-1-outside-1" maskUnits="userSpaceOnUse" x="-0.446533" y="0.620117" width="93" height="66" fill="black">
<rect fill="white" x="-0.446533" y="0.620117" width="93" height="66"/>
<path d="M75.7035 63.8301L69.0735 57.4701L66.1335 57.1601L61.3835 59.9501L35.3835 48.2201L32.1635 43.8101L33.4735 40.2501L32.3335 36.3401L21.8935 25.5201L22.4435 23.8901L15.4435 16.0101L12.6135 8.21012L9.49347 6.35012L9.76347 10.9501L17.0735 21.7301L22.6535 33.6001L20.0835 35.8901L13.3835 27.9501L13.2035 23.7301L5.55347 18.0401L8.89347 17.0401V15.6801L5.19347 11.3301L1.55347 1.62012H9.42347L18.5935 6.83012H26.8435V5.10012L32.7835 5.98012L40.5135 14.9501L43.0735 11.9501L47.7535 12.8001L54.2335 23.8001L59.0135 24.9501V27.7501L57.2435 35.8501L62.9435 47.9501L68.6735 49.9501L74.0735 47.3701L75.5635 48.0301L76.8635 46.8601L78.6935 40.4601L85.0735 37.3701L91.3135 37.5901L89.3135 46.9001L84.8235 51.3901H79.4135L79.1635 53.4801L82.1635 56.7501L76.5035 57.5901L75.7035 63.8301ZM65.8635 55.6801L69.7535 56.0901L74.6535 60.8201L75.2535 56.3301L79.2535 55.7301L77.6635 53.9501L78.1335 49.9501H84.2235L88.0035 46.1801L89.5635 38.9501L85.3935 38.8101L79.9135 41.4701L78.1535 47.6501L75.8535 49.7201L74.0735 48.9501L68.7135 51.4501L61.8635 49.1001L55.7435 36.0201L57.5735 27.6001V26.0801L53.3335 25.0801L46.8735 14.1301L43.6435 13.5401L40.4935 17.0801L32.0735 7.32012L28.3135 6.76012V8.27012H18.2135L9.07347 3.06012H3.62347L6.45347 10.5901L10.3835 15.2001L10.3035 18.2001L8.72347 18.6601L14.6135 22.9501L14.7935 27.3601L20.2735 33.7901L20.9335 33.2001L15.8635 22.4501L8.35347 11.3801L7.90347 3.72012L13.7735 7.24012L16.6935 15.2401L24.0735 23.5501L23.5435 25.1501L33.5935 35.5701L34.9735 40.2801L33.7635 43.5501L36.3035 47.0401L61.3035 58.3101L65.8635 55.6801Z"/>
</mask>
<path d="M75.7035 63.8301L69.0735 57.4701L66.1335 57.1601L61.3835 59.9501L35.3835 48.2201L32.1635 43.8101L33.4735 40.2501L32.3335 36.3401L21.8935 25.5201L22.4435 23.8901L15.4435 16.0101L12.6135 8.21012L9.49347 6.35012L9.76347 10.9501L17.0735 21.7301L22.6535 33.6001L20.0835 35.8901L13.3835 27.9501L13.2035 23.7301L5.55347 18.0401L8.89347 17.0401V15.6801L5.19347 11.3301L1.55347 1.62012H9.42347L18.5935 6.83012H26.8435V5.10012L32.7835 5.98012L40.5135 14.9501L43.0735 11.9501L47.7535 12.8001L54.2335 23.8001L59.0135 24.9501V27.7501L57.2435 35.8501L62.9435 47.9501L68.6735 49.9501L74.0735 47.3701L75.5635 48.0301L76.8635 46.8601L78.6935 40.4601L85.0735 37.3701L91.3135 37.5901L89.3135 46.9001L84.8235 51.3901H79.4135L79.1635 53.4801L82.1635 56.7501L76.5035 57.5901L75.7035 63.8301ZM65.8635 55.6801L69.7535 56.0901L74.6535 60.8201L75.2535 56.3301L79.2535 55.7301L77.6635 53.9501L78.1335 49.9501H84.2235L88.0035 46.1801L89.5635 38.9501L85.3935 38.8101L79.9135 41.4701L78.1535 47.6501L75.8535 49.7201L74.0735 48.9501L68.7135 51.4501L61.8635 49.1001L55.7435 36.0201L57.5735 27.6001V26.0801L53.3335 25.0801L46.8735 14.1301L43.6435 13.5401L40.4935 17.0801L32.0735 7.32012L28.3135 6.76012V8.27012H18.2135L9.07347 3.06012H3.62347L6.45347 10.5901L10.3835 15.2001L10.3035 18.2001L8.72347 18.6601L14.6135 22.9501L14.7935 27.3601L20.2735 33.7901L20.9335 33.2001L15.8635 22.4501L8.35347 11.3801L7.90347 3.72012L13.7735 7.24012L16.6935 15.2401L24.0735 23.5501L23.5435 25.1501L33.5935 35.5701L34.9735 40.2801L33.7635 43.5501L36.3035 47.0401L61.3035 58.3101L65.8635 55.6801Z" fill="#0052FD"/>
<path d="M75.7035 63.8301L69.0735 57.4701L66.1335 57.1601L61.3835 59.9501L35.3835 48.2201L32.1635 43.8101L33.4735 40.2501L32.3335 36.3401L21.8935 25.5201L22.4435 23.8901L15.4435 16.0101L12.6135 8.21012L9.49347 6.35012L9.76347 10.9501L17.0735 21.7301L22.6535 33.6001L20.0835 35.8901L13.3835 27.9501L13.2035 23.7301L5.55347 18.0401L8.89347 17.0401V15.6801L5.19347 11.3301L1.55347 1.62012H9.42347L18.5935 6.83012H26.8435V5.10012L32.7835 5.98012L40.5135 14.9501L43.0735 11.9501L47.7535 12.8001L54.2335 23.8001L59.0135 24.9501V27.7501L57.2435 35.8501L62.9435 47.9501L68.6735 49.9501L74.0735 47.3701L75.5635 48.0301L76.8635 46.8601L78.6935 40.4601L85.0735 37.3701L91.3135 37.5901L89.3135 46.9001L84.8235 51.3901H79.4135L79.1635 53.4801L82.1635 56.7501L76.5035 57.5901L75.7035 63.8301ZM65.8635 55.6801L69.7535 56.0901L74.6535 60.8201L75.2535 56.3301L79.2535 55.7301L77.6635 53.9501L78.1335 49.9501H84.2235L88.0035 46.1801L89.5635 38.9501L85.3935 38.8101L79.9135 41.4701L78.1535 47.6501L75.8535 49.7201L74.0735 48.9501L68.7135 51.4501L61.8635 49.1001L55.7435 36.0201L57.5735 27.6001V26.0801L53.3335 25.0801L46.8735 14.1301L43.6435 13.5401L40.4935 17.0801L32.0735 7.32012L28.3135 6.76012V8.27012H18.2135L9.07347 3.06012H3.62347L6.45347 10.5901L10.3835 15.2001L10.3035 18.2001L8.72347 18.6601L14.6135 22.9501L14.7935 27.3601L20.2735 33.7901L20.9335 33.2001L15.8635 22.4501L8.35347 11.3801L7.90347 3.72012L13.7735 7.24012L16.6935 15.2401L24.0735 23.5501L23.5435 25.1501L33.5935 35.5701L34.9735 40.2801L33.7635 43.5501L36.3035 47.0401L61.3035 58.3101L65.8635 55.6801Z" stroke="#0052FD" stroke-width="2" mask="url(#path-1-outside-1)"/>
</svg>
