<svg width="94" height="51" viewBox="0 0 94 51" fill="none" xmlns="http://www.w3.org/2000/svg">
<g clip-path="url(#clip0)">
<path d="M24.38 41.6119C23.8207 41.6329 23.2614 41.6958 22.7022 41.6888C22.2967 41.6888 21.8912 41.6539 21.4858 41.6119C21.1642 41.577 20.8356 41.563 20.514 41.521C20.1925 41.4791 19.78 41.3882 19.6332 41.0526C19.4514 40.6192 19.745 40.039 19.9198 39.6475C20.7028 37.9347 21.5766 36.2709 22.821 34.8238C23.625 33.887 23.5481 32.9852 22.5903 32.2511C21.5627 31.4682 20.9335 32.2721 20.3602 32.9712C18.8782 34.7679 17.8156 36.8162 16.8508 38.9204C16.5292 39.6195 16.1447 40.1578 15.3967 39.6055C14.7256 39.1092 13.4393 38.8855 13.9846 37.5782C14.6697 35.9353 15.3058 34.2365 16.2216 32.7265C18.7384 28.567 21.5766 24.6591 25.3307 21.4503C28.994 18.3253 33.0487 15.8995 37.4249 13.9491C38.3477 13.5366 39.1866 14.1518 39.7599 15.5639C40.1444 16.5147 39.2845 16.5846 38.8161 16.7943C37.2851 17.4934 36.0407 18.563 34.7964 19.6396C33.9784 20.3457 33.8876 21.1986 34.6216 21.9955C35.3207 22.7575 36.1037 22.6317 36.8727 21.9886C37.6277 21.3454 38.4176 20.7512 39.2426 20.1989C41.0112 19.0384 41.3748 19.2411 41.4657 21.3104C41.5006 22.0654 41.5495 22.8135 41.6195 23.5685C41.7033 24.5192 42.1577 25.2393 43.1784 25.2603C44.1781 25.2882 44.7164 24.6521 44.8213 23.6733C44.8562 23.3448 44.8842 23.0162 44.8912 22.6876C44.9331 20.5834 44.4368 18.57 43.7377 16.6056C43.5769 16.1442 43.4231 15.7527 43.5909 15.2563C44.2201 13.3339 44.7933 11.3904 45.4225 9.46791C46.6529 5.69285 45.052 2.20441 41.0252 0.994986C37.8024 0.0302471 34.4888 0.834196 32.8249 5.05668C32.6012 5.61595 32.3146 6.06336 31.8532 6.39892C28.7213 8.67095 25.2678 10.2369 21.4508 10.8871C16.2706 11.7609 12.2788 15.5709 11.2302 20.7302C10.4821 24.4074 9.24476 27.8958 7.18246 31.0557C6.63018 31.9016 5.99401 32.5238 4.98732 32.9293C1.51286 34.3204 -0.0111442 37.8788 1.22624 41.4022C2.48459 45.0025 5.90313 46.6803 9.65722 45.5128C11.5028 44.9396 13.3414 44.3663 15.166 43.7371C15.6903 43.5554 16.1098 43.5484 16.6481 43.7371C19.2067 44.639 21.8493 45.0584 24.5617 44.8766C25.5824 44.8067 26.4283 44.3803 26.5052 43.2128C26.5541 42.311 25.5335 41.57 24.38 41.6119ZM35.9149 5.60197C36.5371 4.44148 38.1799 3.5886 39.3195 3.85425C41.6125 4.39255 42.6611 5.44817 42.6611 7.43357C42.5213 8.67795 41.9061 10.0132 41.4866 11.3974C41.3119 11.9567 40.9204 11.8099 40.6198 11.5092C39.0608 9.9363 37.5088 8.36336 35.9638 6.77643C35.6143 6.40592 35.6912 6.02142 35.9149 5.60197ZM11.1183 41.7098C10.1606 41.9475 9.23777 42.3529 8.27303 42.5557C5.82623 43.059 4.0086 41.4791 4.05055 38.8575C3.99462 38.2074 4.2393 37.5432 4.63778 36.942C5.47668 35.6906 6.57425 35.5928 7.63686 36.6484C8.9092 37.9137 10.1536 39.214 11.4539 40.4584C12.1669 41.1435 12.0831 41.4791 11.1183 41.7098ZM10.6779 35.411C9.68518 34.9147 9.19582 33.6353 9.68518 32.9223C11.37 30.4615 12.4675 27.7211 13.4323 24.9317C13.9846 23.3448 14.2013 21.646 14.6906 20.0311C15.6903 16.7244 18.1162 14.9418 21.3669 14.2287C25.4985 13.3199 29.4553 12.0336 32.9158 9.50986C33.2793 9.24421 33.6359 9.06244 34.0833 9.34208C34.4189 9.5518 35.5654 10.8381 35.5444 11.0758C35.3556 11.5232 34.8803 11.6491 34.4608 11.8448C30.0496 13.9421 25.9949 16.5706 22.3946 19.9053C17.9274 24.0369 14.5299 28.9165 11.9642 34.4043C11.7195 34.9286 11.6846 35.9144 10.6779 35.411Z" fill="#858585"/>
<path d="M60.1805 28.4065C58.223 27.7843 56.2166 27.7983 54.2312 28.5254C50.4352 29.9235 47.8905 33.9083 47.8486 38.6131C47.8206 41.3885 49.1489 43.5417 51.4349 44.2827C53.5112 44.9538 55.5875 44.8839 57.6568 44.1429C62.8859 42.2624 64.6057 35.5022 63.4662 31.6782C62.9838 30.0284 61.7674 28.9098 60.1805 28.4065ZM59.3625 34.8451C59.1039 36.6417 58.9221 38.711 57.2793 40.27C56.1817 41.3186 54.9024 41.4584 53.623 40.9761C52.3018 40.4727 52.148 39.1794 52.3018 37.984C52.5325 36.2223 52.8051 34.4466 53.9516 32.9645C54.8394 31.832 56.3215 31.2098 57.5309 31.5174C58.8802 31.874 59.4254 32.7828 59.3625 34.8451Z" fill="#858585"/>
<path d="M79.0837 29.5739C77.9512 28.5532 76.4551 28.0219 74.9311 27.98C73.8965 27.952 72.9177 28.2736 71.946 28.6022C70.9813 28.9307 70.1214 29.3642 69.3524 30.0283C68.7093 30.5666 68.122 31.1818 67.6047 31.8459C66.6539 33.1113 66.0318 34.5863 65.7242 36.1383C65.4585 37.4526 65.4026 38.7949 65.4795 40.1301C65.5913 42.1994 66.8986 43.7024 68.9469 44.3526C71.2749 45.0866 73.5959 44.7511 75.9098 44.1638C77.0983 43.8632 77.7834 43.1711 78.042 41.9897C78.1329 41.5772 78.3706 41.1718 78.0351 40.7873C77.6575 40.3608 77.1542 40.4587 76.7208 40.6335C75.5603 41.1018 74.3439 41.2137 73.1205 41.3256C70.3801 41.5772 69.2755 40.235 69.9746 37.5365C70.0165 37.3897 71.7712 37.5715 71.946 37.5784C73.2743 37.6414 74.5466 37.3408 75.819 36.9842C76.4481 36.8164 77.0633 36.5787 77.6436 36.2781C79.2165 35.4532 80.8454 33.6775 80.5238 31.7481C80.4119 31.0769 79.9366 30.4547 79.4891 29.9584C79.3493 29.8256 79.2235 29.6997 79.0837 29.5739ZM75.5533 33.8313C75.4484 33.9152 75.3436 33.9851 75.2247 34.0481C74.5816 34.4186 73.8475 34.5933 73.1135 34.6702C72.743 34.7052 72.3655 34.7192 71.988 34.7262C71.6943 34.7262 71.2959 34.8031 71.0162 34.6982C70.7366 34.5933 70.5968 34.2578 70.6387 33.9572C70.6807 33.6566 70.8624 33.4049 71.0512 33.1742C71.988 32.0626 72.8618 31.035 74.4557 31.0839C75.2387 31.1119 75.9378 31.4754 76.2034 32.2374C76.4202 32.8876 76.0427 33.4468 75.5533 33.8313Z" fill="#858585"/>
<path d="M93.0305 28.8607C90.1292 27.3298 85.9137 27.7911 83.9003 30.4966C82.4252 32.475 82.4462 35.6628 84.8091 36.9631C85.6341 37.4176 86.5289 37.6063 87.2909 38.1935C87.6475 38.4662 87.962 38.8157 88.1158 39.2352C88.5703 40.4516 87.3888 41.3534 86.3122 41.5492C85.2496 41.7449 84.2708 41.4303 83.3061 40.9759C81.5584 40.151 81.1459 40.4166 80.9851 42.3601C80.9152 43.213 81.3346 43.6953 82.0407 44.0029C84.6623 45.1564 88.032 44.9887 90.3879 43.2339C93.6037 40.8431 93.2821 36.7674 89.7308 34.9847C89.1855 34.7121 88.6122 34.4674 88.0949 34.1458C87.5286 33.7963 86.9623 33.3699 87.1301 32.5799C87.3119 31.748 87.9061 31.3006 88.7171 31.1747C89.7238 31.0139 90.6955 31.2097 91.6043 31.6641C92.2894 32.0066 92.9676 32.3352 93.3241 31.3355C93.6247 30.4896 94.2679 29.5109 93.0305 28.8607Z" fill="#858585"/>
<path d="M45.9543 28.4276C44.8357 28.134 43.6333 27.9173 42.8993 29.0777C42.4379 29.8118 42.1792 29.5531 41.7318 29.1826C39.0054 26.9595 35.5589 28.0571 33.6294 30.1194C31.0918 32.8388 30.2249 36.1525 30.3787 39.7528C30.4486 41.4585 31.1407 43.1223 32.6158 44.0661C34.1607 45.0518 36.2999 45.0238 37.726 43.8284C38.1036 43.6397 38.4741 43.4439 38.8586 43.2691C39.1732 43.1223 39.3899 43.1853 39.4528 43.5767C39.6415 44.7792 38.6558 46.2263 37.4464 46.6387C35.6498 47.2539 33.93 46.9393 32.2173 46.3451C31.7489 46.1843 31.3155 46.0235 30.917 46.436C30.3158 47.0652 30.2459 47.9111 30.2808 48.6801C30.3088 49.4281 31.0638 49.6937 31.7 49.8685C33.916 50.4837 36.1461 50.5326 38.3832 49.9594C39.4178 49.6937 40.4245 49.2323 41.2354 48.5332C41.6479 48.1837 41.9974 47.7643 42.2631 47.2889C43.2628 45.4643 43.9339 43.4579 44.3254 41.4166C44.8427 38.6901 45.2831 35.9497 45.8074 33.2233C46.0591 31.895 46.2549 30.5598 46.5974 29.2525C46.7023 28.861 46.3108 28.5185 45.9543 28.4276ZM41.3193 33.8245C41.3333 34.3139 41.2145 34.8382 41.1096 35.3485C40.8999 36.3692 40.6133 37.3898 40.068 38.2917C39.7254 38.8439 39.32 39.3543 38.8516 39.8087C38.4251 40.2281 37.9637 40.6266 37.3905 40.8154C36.9221 40.9692 36.4048 41.067 35.9224 40.9622C35.6777 40.9132 35.447 40.8084 35.2513 40.6546C34.748 40.2631 34.699 39.55 34.713 38.9698C34.727 38.1728 34.8458 37.3968 34.9996 36.6209C35.2094 35.5163 35.5659 34.4397 36.1391 33.468C36.7683 32.4054 37.6212 31.6853 38.8446 31.7622C39.4458 31.7972 40.019 31.9859 40.5224 32.3145C41.1166 32.713 41.3054 33.2443 41.3193 33.8245ZM46.0102 29.3923C45.9962 29.3294 45.9752 29.2665 45.9473 29.2036C45.9752 29.2665 45.9962 29.3294 46.0102 29.3923Z" fill="#858585"/>
</g>
<defs>
<clipPath id="clip0">
<rect width="92.9575" height="49.74" fill="white" transform="translate(0.799805 0.624756)"/>
</clipPath>
</defs>
</svg>
