<svg width="91" height="63" viewBox="0 0 91 63" fill="none" xmlns="http://www.w3.org/2000/svg">
<path d="M74.7035 62.8301L68.0735 56.4701L65.1335 56.1601L60.3835 58.9501L34.3835 47.2201L31.1635 42.8101L32.4735 39.2501L31.3335 35.3401L20.8935 24.5201L21.4435 22.8901L14.4435 15.0101L11.6135 7.21012L8.49347 5.35012L8.76347 9.95012L16.0735 20.7301L21.6535 32.6001L19.0835 34.8901L12.3835 26.9501L12.2035 22.7301L4.55347 17.0401L7.89347 16.0401V14.6801L4.19347 10.3301L0.553467 0.620117H8.42347L17.5935 5.83012H25.8435V4.10012L31.7835 4.98012L39.5135 13.9501L42.0735 10.9501L46.7535 11.8001L53.2335 22.8001L58.0135 23.9501V26.7501L56.2435 34.8501L61.9435 46.9501L67.6735 48.9501L73.0735 46.3701L74.5635 47.0301L75.8635 45.8601L77.6935 39.4601L84.0735 36.3701L90.3135 36.5901L88.3135 45.9001L83.8235 50.3901H78.4135L78.1635 52.4801L81.1635 55.7501L75.5035 56.5901L74.7035 62.8301ZM64.8635 54.6801L68.7535 55.0901L73.6535 59.8201L74.2535 55.3301L78.2535 54.7301L76.6635 52.9501L77.1335 48.9501H83.2235L87.0035 45.1801L88.5635 37.9501L84.3935 37.8101L78.9135 40.4701L77.1535 46.6501L74.8535 48.7201L73.0735 47.9501L67.7135 50.4501L60.8635 48.1001L54.7435 35.0201L56.5735 26.6001V25.0801L52.3335 24.0801L45.8735 13.1301L42.6435 12.5401L39.4935 16.0801L31.0735 6.32012L27.3135 5.76012V7.27012H17.2135L8.07347 2.06012H2.62347L5.45347 9.59012L9.38347 14.2001L9.30347 17.2001L7.72347 17.6601L13.6135 21.9501L13.7935 26.3601L19.2735 32.7901L19.9335 32.2001L14.8635 21.4501L7.35347 10.3801L6.90347 2.72012L12.7735 6.24012L15.6935 14.2401L23.0735 22.5501L22.5435 24.1501L32.5935 34.5701L33.9735 39.2801L32.7635 42.5501L35.3035 46.0401L60.3035 57.3101L64.8635 54.6801Z" fill="#0052FD"/>
</svg>
